<svg width="517.4199951171875px" height="123.2111328125px" xmlns="http://www.w3.org/2000/svg" viewBox="-8.709997558593727 13.394433593750001 517.4199951171875 123.2111328125" style="background: rgb(253, 253, 253);" preserveAspectRatio="xMidYMid"><defs><linearGradient id="editing-gradow-gradient" x1="0" x2="1" y1="0.5" y2="0.5" gradientUnits="objectBoundingBox"><stop offset="0" stop-color="#ffffff"></stop><stop offset="1" stop-color="#ffffff"></stop></linearGradient><filter id="editing-gradow-filter" x="-100%" y="-100%" width="300%" height="300%"><feFlood flood-color="#fdfdfd" result="flood"></feFlood><feComposite operator="in" in2="SourceAlpha" in="flood" result="shadow"></feComposite><feOffset dx="-4" dy="-4" in="SourceGraphic" result="offset-1"></feOffset><feOffset dx="4" dy="4" in="shadow" result="offset-2"></feOffset><feMerge><feMergeNode in="offset-2"></feMergeNode><feMergeNode in="offset-1"></feMergeNode></feMerge></filter></defs><g filter="url(#editing-gradow-filter)"><g transform="translate(105.2950029373169, 98.5546875)"><path d="M39.30-42.69L39.30-42.69L39.30-42.69Q54.98-42.69 54.98-31.62L54.98-31.62L54.98-31.62Q54.98-25.54 51.07-21.89L51.07-21.89L51.07-21.89Q47.23-18.24 40.51-18.24L40.51-18.24L40.51-18.24Q37.38-18.24 34.94-20.03L34.94-20.03L34.94-20.03Q33.79-20.80 33.02-21.82L33.02-21.82L33.02-21.82Q37.70-21.82 40.16-24.67L40.16-24.67L40.16-24.67Q42.62-27.52 42.62-33.09L42.62-33.09L42.62-33.09Q42.62-38.66 37.12-38.66L37.12-38.66L35.58-38.66L35.58-38.66Q35.20-38.66 34.88-38.59L34.88-38.59L27.52 0L13.63 0L21.50-41.92L21.50-41.92Q28.35-42.56 32.32-42.62L32.32-42.62L32.32-42.62Q36.29-42.69 39.30-42.69ZM70.66-3.52L70.66-3.52L70.66-3.52Q68.67 1.28 62.34 1.28L62.34 1.28L62.34 1.28Q59.07 1.28 57.02-0.96L57.02-0.96L57.02-0.96Q55.30-2.94 55.30-4.93L55.30-4.93L55.30-4.93Q55.30-10.11 57.66-20.22L57.66-20.22L60.03-32.64L73.02-33.92L69.12-13.70L69.12-13.70Q68.03-8.96 68.03-7.30L68.03-7.30L68.03-7.30Q68.03-3.65 70.66-3.52ZM61.18-41.54L61.18-41.54L61.18-41.54Q61.18-44.03 63.26-45.38L63.26-45.38L63.26-45.38Q65.34-46.72 68.35-46.72L68.35-46.72L68.35-46.72Q71.36-46.72 73.18-45.38L73.18-45.38L73.18-45.38Q75.01-44.03 75.01-41.54L75.01-41.54L75.01-41.54Q75.01-39.04 72.99-37.76L72.99-37.76L72.99-37.76Q70.98-36.48 67.97-36.48L67.97-36.48L67.97-36.48Q64.96-36.48 63.07-37.76L63.07-37.76L63.07-37.76Q61.18-39.04 61.18-41.54ZM107.52-26.62L107.52-26.62L107.52-26.62Q107.52-23.94 105.28-22.27L105.28-22.27L105.28-22.27Q103.04-20.61 99.39-20.61L99.39-20.61L99.39-20.61Q97.86-20.61 96.96-21.06L96.96-21.06L96.96-21.06Q97.66-22.72 97.89-24.80L97.89-24.80L97.89-24.80Q98.11-26.88 98.11-27.46L98.11-27.46L98.11-27.46Q98.11-30.14 96.26-30.14L96.26-30.14L96.26-30.14Q94.98-30.14 93.54-28.54L93.54-28.54L93.54-28.54Q92.10-26.94 90.88-24.45L90.88-24.45L90.88-24.45Q88.19-18.69 88.19-12.86L88.19-12.86L88.19-12.86Q88.19-9.66 89.41-8.22L89.41-8.22L89.41-8.22Q90.62-6.78 93.31-6.78L93.31-6.78L93.31-6.78Q97.02-6.78 99.97-9.86L99.97-9.86L99.97-9.86Q100.80-10.82 101.25-11.90L101.25-11.90L101.25-11.90Q103.68-10.62 103.68-7.10L103.68-7.10L103.68-7.10Q103.68-3.52 99.71-1.15L99.71-1.15L99.71-1.15Q95.62 1.28 89.09 1.28L89.09 1.28L89.09 1.28Q76.10 1.28 76.10-12.48L76.10-12.48L76.10-12.48Q76.10-22.53 81.79-28.29L81.79-28.29L81.79-28.29Q87.30-33.92 97.41-33.92L97.41-33.92L97.41-33.92Q107.52-33.92 107.52-26.62ZM125.76-30.34L125.76-30.34L125.76-30.34Q129.22-33.92 136.51-33.92L136.51-33.92L136.51-33.92Q140.54-33.92 142.75-31.78L142.75-31.78L142.75-31.78Q144.96-29.63 144.96-25.70L144.96-25.70L144.96-25.70Q144.96-21.76 142.75-18.98L142.75-18.98L142.75-18.98Q140.54-16.19 136.45-15.04L136.45-15.04L136.45-15.04Q136.77-13.76 137.22-12.42L137.22-12.42L138.11-9.86L138.11-9.86Q139.33-6.59 140.29-5.44L140.29-5.44L140.29-5.44Q141.25-4.29 142.53-3.90L142.53-3.90L142.53-3.90Q141.82-1.28 139.26 0.13L139.26 0.13L139.26 0.13Q137.22 1.28 134.40 1.28L134.40 1.28L134.40 1.28Q126.14 1.28 125.06-11.46L125.06-11.46L125.06-11.46Q124.86-13.25 124.86-15.04L124.86-15.04L124.86-15.04Q128.06-15.94 130.30-18.94L130.30-18.94L130.30-18.94Q132.54-21.95 132.54-25.47L132.54-25.47L132.54-25.47Q132.54-28.99 130.05-28.99L130.05-28.99L130.05-28.99Q128.26-28.99 126.85-27.01L126.85-27.01L126.85-27.01Q125.44-25.02 124.80-21.63L124.80-21.63L120.58 0L107.65 1.28L116.61-44.80L129.47-46.08L128-38.46L128-38.46Q127.04-33.09 125.76-30.34ZM163.20-3.52L163.20-3.52L163.20-3.52Q161.22 1.28 154.88 1.28L154.88 1.28L154.88 1.28Q151.68 1.28 149.63-0.96L149.63-0.96L149.63-0.96Q147.97-2.82 147.97-4.93L147.97-4.93L147.97-4.93Q147.97-9.73 150.21-20.22L150.21-20.22L154.88-44.80L167.87-46.08L161.66-13.70L161.66-13.70Q160.58-8.96 160.58-7.30L160.58-7.30L160.58-7.30Q160.58-3.65 163.20-3.52ZM194.56-10.82L194.56-10.82L194.56-10.82Q196.16-9.73 196.16-7.33L196.16-7.33L196.16-7.33Q196.16-4.93 194.94-3.39L194.94-3.39L194.94-3.39Q193.73-1.86 191.74-0.83L191.74-0.83L191.74-0.83Q187.65 1.28 183.23 1.28L183.23 1.28L183.23 1.28Q178.82 1.28 176.22 0.32L176.22 0.32L176.22 0.32Q173.63-0.64 171.90-2.43L171.90-2.43L171.90-2.43Q168.51-5.82 168.51-12.03L168.51-12.03L168.51-12.03Q168.51-21.70 173.76-27.58L173.76-27.58L173.76-27.58Q179.39-33.92 189.18-33.92L189.18-33.92L189.18-33.92Q195.26-33.92 198.27-31.36L198.27-31.36L198.27-31.36Q200.51-29.44 200.51-26.30L200.51-26.30L200.51-26.30Q200.51-15.04 181.06-15.04L181.06-15.04L181.06-15.04Q180.80-13.38 180.80-11.97L180.80-11.97L180.80-11.97Q180.80-9.02 182.11-7.90L182.11-7.90L182.11-7.90Q183.42-6.78 185.86-6.78L185.86-6.78L185.86-6.78Q188.29-6.78 190.88-7.90L190.88-7.90L190.88-7.90Q193.47-9.02 194.56-10.82ZM181.50-17.79L181.50-17.79L181.50-17.79Q186.05-17.79 188.67-20.61L188.67-20.61L188.67-20.61Q191.30-23.30 191.30-27.58L191.30-27.58L191.30-27.58Q191.30-29.06 190.75-29.86L190.75-29.86L190.75-29.86Q190.21-30.66 189.12-30.66L189.12-30.66L189.12-30.66Q188.03-30.66 187.10-30.24L187.10-30.24L187.10-30.24Q186.18-29.82 185.22-28.42L185.22-28.42L185.22-28.42Q182.85-25.22 181.50-17.79ZM236.10-13.25L236.10-13.25L236.10-13.25Q237.76-12.03 237.76-9.44L237.76-9.44L237.76-9.44Q237.76-6.85 236.64-5.02L236.64-5.02L236.64-5.02Q235.52-3.20 233.34-1.79L233.34-1.79L233.34-1.79Q228.67 1.22 220.51 1.22L220.51 1.22L220.51 1.22Q212.35 1.22 207.90-3.04L207.90-3.04L207.90-3.04Q203.46-7.30 203.46-14.85L203.46-14.85L203.46-14.85Q203.46-25.54 209.02-33.66L209.02-33.66L209.02-33.66Q213.25-39.68 220.80-42.24L220.80-42.24L220.80-42.24Q224.70-43.52 228.54-43.52L228.54-43.52L228.54-43.52Q232.38-43.52 234.75-43.01L234.75-43.01L234.75-43.01Q237.12-42.50 238.91-41.47L238.91-41.47L238.91-41.47Q242.82-39.23 242.82-35.65L242.82-35.65L242.82-35.65Q242.82-32.38 239.74-29.95L239.74-29.95L239.74-29.95Q236.93-27.78 234.62-27.78L234.62-27.78L234.62-27.78Q232.32-27.78 231.36-28.10L231.36-28.10L231.36-28.10Q231.62-30.40 231.62-31.90L231.62-31.90L231.62-31.90Q231.62-33.41 231.55-34.50L231.55-34.50L231.55-34.50Q231.49-35.58 231.17-36.61L231.17-36.61L231.17-36.61Q230.53-38.98 228.58-38.98L228.58-38.98L228.58-38.98Q226.62-38.98 224.67-37.15L224.67-37.15L224.67-37.15Q222.72-35.33 221.06-32.26L221.06-32.26L221.06-32.26Q217.28-25.28 217.28-17.02L217.28-17.02L217.28-17.02Q217.28-13.06 219.52-10.78L219.52-10.78L219.52-10.78Q221.76-8.51 226.56-8.51L226.56-8.51L226.56-8.51Q230.14-8.51 233.54-10.88L233.54-10.88L233.54-10.88Q235.01-11.90 236.10-13.25ZM242.94-1.60L242.56-9.47L250.56-15.62L255.55-19.71L255.55-19.71Q258.11-21.89 259.97-23.81L259.97-23.81L259.97-23.81Q263.36-27.20 263.36-30.46L263.36-30.46L263.36-30.46Q263.36-32.38 262.11-33.41L262.11-33.41L262.11-33.41Q260.86-34.43 259.04-34.43L259.04-34.43L259.04-34.43Q257.22-34.43 255.90-34.02L255.90-34.02L255.90-34.02Q254.59-33.60 253.44-32.90L253.44-32.90L253.44-32.90Q251.01-31.30 249.86-28.86L249.86-28.86L249.86-28.86Q248.26-28.93 247.20-30.27L247.20-30.27L247.20-30.27Q246.14-31.62 246.14-33.57L246.14-33.57L246.14-33.57Q246.14-35.52 247.36-37.34L247.36-37.34L247.36-37.34Q248.58-39.17 250.75-40.58L250.75-40.58L250.75-40.58Q255.49-43.52 261.98-43.52L261.98-43.52L261.98-43.52Q268.48-43.52 272.13-40.70L272.13-40.70L272.13-40.70Q275.78-37.89 275.78-33.09L275.78-33.09L275.78-33.09Q275.78-29.50 274.02-26.24L274.02-26.24L274.02-26.24Q272.26-22.98 267.58-19.65L267.58-19.65L260.67-14.78L256.51-12.03L251.20-8.77L253.44-8.51L253.44-8.51Q254.98-8.32 257.66-8.32L257.66-8.32L257.66-8.32Q260.35-8.32 262.59-8.61L262.59-8.61L262.59-8.61Q264.83-8.90 266.75-9.47L266.75-9.47L266.75-9.47Q270.98-10.62 272.32-12.22L272.32-12.22L272.32-12.22Q273.02-11.71 273.57-10.40L273.57-10.40L273.57-10.40Q274.11-9.09 274.11-7.49L274.11-7.49L274.11-7.49Q274.11-2.69 270.46-0.70L270.46-0.70L270.46-0.70Q266.82 1.28 259.33 1.28L259.33 1.28L259.33 1.28Q255.42 1.28 250.24 0.16L250.24 0.16L250.24 0.16Q245.06-0.96 242.94-1.60L242.94-1.60Z" fill="url(#editing-gradow-gradient)"></path></g></g><style>text {
  font-size: 64px;
  font-family: Arial Black;
  dominant-baseline: central;
  text-anchor: middle;
}</style></svg>